name ./resultDataOpenSim/trcMotMarkerGrf/sub09/grf-04-02.mot
datacolumns 19
datarows 25
range 0.98400000 1.08000000
endheader

                time	     ground_force_vx	     ground_force_vy	     ground_force_vz	     ground_force_px	     ground_force_py	     ground_force_pz	   l_ground_force_vx	   l_ground_force_vy	   l_ground_force_vz	   l_ground_force_px	   l_ground_force_py	   l_ground_force_pz	     ground_torque_x	     ground_torque_y	     ground_torque_z	   l_ground_torque_x	   l_ground_torque_y	   l_ground_torque_z	
          0.98400000	          0.00000000	          0.00000000	          0.00000000	          0.00000000	          0.00000000	          0.00000000	         15.74599533	        375.42970969	         17.71144119	          0.17636276	         -0.07500000	          0.01085551	          0.00000000	          0.00000000	          0.00000000	          0.00000000	         -3.73087080	          0.00000000	
          0.98800000	          0.00000000	          0.00000000	          0.00000000	          0.00000000	          0.00000000	          0.00000000	         20.77889881	        380.57264812	         17.54564375	          0.17727891	         -0.07500000	          0.01134991	          0.00000000	          0.00000000	          0.00000000	          0.00000000	         -4.01225388	          0.00000000	
          0.99200000	          0.00000000	          0.00000000	          0.00000000	          0.00000000	          0.00000000	          0.00000000	         26.19425847	        387.23981079	         17.24503402	          0.17824760	         -0.07500000	          0.01189973	          0.00000000	          0.00000000	          0.00000000	          0.00000000	         -4.30764853	          0.00000000	
          0.99600000	          0.00000000	          0.00000000	          0.00000000	          0.00000000	          0.00000000	          0.00000000	         31.81369529	        395.33260141	         16.79720088	          0.17921217	         -0.07500000	          0.01245077	          0.00000000	          0.00000000	          0.00000000	          0.00000000	         -4.61575994	          0.00000000	
          1.00000000	          0.00000000	          0.00000000	          0.00000000	          0.00000000	          0.00000000	          0.00000000	         37.41408565	        404.76826043	         16.20892389	          0.18008607	         -0.07500000	          0.01295334	          0.00000000	          0.00000000	          0.00000000	          0.00000000	         -4.93149091	          0.00000000	
          1.00400000	          0.00000000	          0.00000000	          0.00000000	          0.00000000	          0.00000000	          0.00000000	         42.75122507	        415.52545621	         15.50362499	          0.18074383	         -0.07500000	          0.01334531	          0.00000000	          0.00000000	          0.00000000	          0.00000000	         -5.24680232	          0.00000000	
          1.00800000	          0.00000000	          0.00000000	          0.00000000	          0.00000000	          0.00000000	          0.00000000	         47.58839050	        427.58751916	         14.71995379	          0.18111902	         -0.07500000	          0.01358630	          0.00000000	          0.00000000	          0.00000000	          0.00000000	         -5.55235379	          0.00000000	
          1.01200000	          0.00000000	          0.00000000	          0.00000000	          0.00000000	          0.00000000	          0.00000000	         51.73746934	        440.90899962	         13.90844520	          0.18127023	         -0.07500000	          0.01370567	          0.00000000	          0.00000000	          0.00000000	          0.00000000	         -5.83949156	          0.00000000	
          1.01600000	          0.00000000	          0.00000000	          0.00000000	          0.00000000	          0.00000000	          0.00000000	         55.11303546	        455.44521903	         13.12303154	          0.18134917	         -0.07500000	          0.01380924	          0.00000000	          0.00000000	          0.00000000	          0.00000000	         -6.10200237	          0.00000000	
          1.02000000	          0.00000000	          0.00000000	          0.00000000	          0.00000000	          0.00000000	          0.00000000	         57.76326003	        471.16880718	         12.40307925	          0.18147204	         -0.07500000	          0.01398941	          0.00000000	          0.00000000	          0.00000000	          0.00000000	         -6.33714019	          0.00000000	
          1.02400000	          0.00000000	          0.00000000	          0.00000000	          0.00000000	          0.00000000	          0.00000000	         59.84994429	        488.03068631	         11.75936747	          0.18166274	         -0.07500000	          0.01427079	          0.00000000	          0.00000000	          0.00000000	          0.00000000	         -6.54565126	          0.00000000	
          1.02800000	          0.00000000	          0.00000000	          0.00000000	          0.00000000	          0.00000000	          0.00000000	         61.60120070	        505.88550228	         11.18684891	          0.18189732	         -0.07500000	          0.01463198	          0.00000000	          0.00000000	          0.00000000	          0.00000000	         -6.73076146	          0.00000000	
          1.03200000	          0.00000000	          0.00000000	          0.00000000	          0.00000000	          0.00000000	          0.00000000	         63.27014959	        524.43471152	         10.69114245	          0.18214369	         -0.07500000	          0.01502480	          0.00000000	          0.00000000	          0.00000000	          0.00000000	         -6.89640335	          0.00000000	
          1.03600000	          0.00000000	          0.00000000	          0.00000000	          0.00000000	          0.00000000	          0.00000000	         65.10249554	        543.25956817	         10.29526337	          0.18238458	         -0.07500000	          0.01540359	          0.00000000	          0.00000000	          0.00000000	          0.00000000	         -7.04528023	          0.00000000	
          1.04000000	          0.00000000	          0.00000000	          0.00000000	          0.00000000	          0.00000000	          0.00000000	         67.30803973	        561.94053571	         10.03107513	          0.18263457	         -0.07500000	          0.01574670	          0.00000000	          0.00000000	          0.00000000	          0.00000000	         -7.17749030	          0.00000000	
          1.04400000	          0.00000000	          0.00000000	          0.00000000	          0.00000000	          0.00000000	          0.00000000	         70.03809818	        580.17509463	          9.93620480	          0.18291628	         -0.07500000	          0.01605197	          0.00000000	          0.00000000	          0.00000000	          0.00000000	         -7.29027062	          0.00000000	
          1.04800000	          0.00000000	          0.00000000	          0.00000000	          0.00000000	          0.00000000	          0.00000000	         73.36835232	        597.81314144	         10.05140349	          0.18322241	         -0.07500000	          0.01631611	          0.00000000	          0.00000000	          0.00000000	          0.00000000	         -7.37898666	          0.00000000	
          1.05200000	          0.00000000	          0.00000000	          0.00000000	          0.00000000	          0.00000000	          0.00000000	         77.29665197	        614.80110445	         10.41026466	          0.18350353	         -0.07500000	          0.01652795	          0.00000000	          0.00000000	          0.00000000	          0.00000000	         -7.43891624	          0.00000000	
          1.05600000	          0.00000000	          0.00000000	          0.00000000	          0.00000000	          0.00000000	          0.00000000	         81.76829658	        631.09501937	         11.02737965	          0.18370291	         -0.07500000	          0.01668239	          0.00000000	          0.00000000	          0.00000000	          0.00000000	         -7.46698407	          0.00000000	
          1.06000000	          0.00000000	          0.00000000	          0.00000000	          0.00000000	          0.00000000	          0.00000000	         86.71124436	        646.60176799	         11.89173220	          0.18381031	         -0.07500000	          0.01679266	          0.00000000	          0.00000000	          0.00000000	          0.00000000	         -7.46271149	          0.00000000	
          1.06400000	          0.00000000	          0.00000000	          0.00000000	          0.00000000	          0.00000000	          0.00000000	         92.05103528	        661.18085362	         12.97010662	          0.18388052	         -0.07500000	          0.01688553	          0.00000000	          0.00000000	          0.00000000	          0.00000000	         -7.42816319	          0.00000000	
          1.06800000	          0.00000000	          0.00000000	          0.00000000	          0.00000000	          0.00000000	          0.00000000	         97.70302174	        674.70172709	         14.21877148	          0.18399501	         -0.07500000	          0.01698666	          0.00000000	          0.00000000	          0.00000000	          0.00000000	         -7.36716159	          0.00000000	
          1.07200000	          0.00000000	          0.00000000	          0.00000000	          0.00000000	          0.00000000	          0.00000000	        103.55906053	        687.09614103	         15.58882734	          0.18420846	         -0.07500000	          0.01711020	          0.00000000	          0.00000000	          0.00000000	          0.00000000	         -7.28420447	          0.00000000	
          1.07600000	          0.00000000	          0.00000000	          0.00000000	          0.00000000	          0.00000000	          0.00000000	        109.48803801	        698.36502132	         17.02511872	          0.18453930	         -0.07500000	          0.01725610	          0.00000000	          0.00000000	          0.00000000	          0.00000000	         -7.18343973	          0.00000000	
          1.08000000	          0.00000000	          0.00000000	          0.00000000	          0.00000000	          0.00000000	          0.00000000	        115.35952641	        708.54910304	         18.47809775	          0.18498491	         -0.07500000	          0.01741021	          0.00000000	          0.00000000	          0.00000000	          0.00000000	         -7.06794650	          0.00000000	
